<svg id="svg56" xmlns="http://www.w3.org/2000/svg" viewBox="0 0 240.6 60.9"><defs><style>.cls-1{fill:#fff;}.cls-1,.cls-2,.cls-3,.cls-4{fill-rule:evenodd;}.cls-2{fill:#202530;}.cls-3{fill:#c6012d;}.cls-4{fill:#121b21;}</style></defs><path id="path4" class="cls-1" d="M131.2,31.2h0V43.9h15.9V39.3h-8.8V36h12.6v8.7a2.46,2.46,0,0,1-2.5,2.4H130.3a3.06,3.06,0,0,1-2.8-3.1h0V31.1a3.12,3.12,0,0,1,3.1-3.1h20.3v3.3h-.1c-6.6-.1-13-.1-19.6-.1ZM239.1,17h-4.5v2.7h-1.4V14.2c0-.6.6-1,1.2-1.1h5a1.13,1.13,0,0,1,1.2,1.1v5.5h-1.4V17Zm-28.8-2.7v4.2h6v1.1h-6.2a1.13,1.13,0,0,1-1.2-1.1h0V14.1a1.2,1.2,0,0,1,1.2-1.1h6.2v1.1Zm-19.4-1.1h1.4v6.5h-1.4Zm-22.5,4.1v2.5H167V13.3h6.2a1.13,1.13,0,0,1,1.2,1.1v1.9a1.2,1.2,0,0,1-1.2,1.1l1.5,2.5h-1.6l-1.5-2.5h-3.2Zm-24.1-3v1.5h6v1.1h-6v1.6h6v1.1h-6.2a1.13,1.13,0,0,1-1.2-1.1V14.1a1.2,1.2,0,0,1,1.2-1.1h6.2v1.1Zm-25.8-1.1h6.8a1.1,1.1,0,0,1,1.2,1.2v4.1a1.16,1.16,0,0,1-1.2,1.2h-6.8V13.2ZM95.8,14.3v1.5h6v1.1h-6v1.6h6v1.1H95.6a1.13,1.13,0,0,1-1.2-1.1h0V14.1A1.2,1.2,0,0,1,95.6,13h6.2v1.1Zm-24,0v1.6h6V17h-6v2.7H70.4V14.2a1.2,1.2,0,0,1,1.2-1.1h6.2v1.1ZM91.7,37.5v.1a3.23,3.23,0,0,1,2.2,2.9v3.6a3.1,3.1,0,0,1-3.1,3H70.4V27.9H90.8a3,3,0,0,1,3.1,3v3.6a3.4,3.4,0,0,1-2.2,3Zm131.6-6.3V47.1h-4V31.2h-9.9V27.9H233v3.3ZM102.6,43.9h15.9V28h3.8V44.1a3,3,0,0,1-3.1,3H102a3.17,3.17,0,0,1-3.1-3V28h3.8ZM236.6,28h4V47.1h-4Zm-40.4,3.2V47.1h-4V31.2h-9.9V27.9h23.6v3.3Zm-20.6,8H159.7v7.9h-3.8V31a3.12,3.12,0,0,1,3.1-3.1h17.3a3.12,3.12,0,0,1,3.1,3.1V47.1h-3.8Zm63.5-23.3V14.4h-4.5v1.5Zm-70.7-1.6v1.8h4.5V14.3Zm-48.5,0v4.2H125V14.3ZM74.1,43.9H90V39.2H74.1Zm0-12.7v4.7H90V31.2ZM175.6,36V31.2H159.7V36Z"/><path id="path6" class="cls-2" d="M61,30.2a30.21,30.21,0,0,1-8.8,21.6,30.48,30.48,0,0,1-21.5,9.1,29.91,29.91,0,0,1-12-2.4,29.58,29.58,0,0,1-10.1-7L8.1,51c-.2-.2-.3-.4-.5-.5h0a29.17,29.17,0,0,1-3.8-5.4A25.24,25.24,0,0,1,1.3,39a6.37,6.37,0,0,0-.2-.7,2.54,2.54,0,0,0-.2-.7L.6,36.4a5,5,0,0,1-.2-1.2V35h0c-.1-.8-.2-1.5-.3-2.2A17,17,0,0,1,0,30.5V29.3a3.75,3.75,0,0,1,.1-1.1,26.38,26.38,0,0,1,.8-4.9,26,26,0,0,1,1.6-4.7v-.1A30.63,30.63,0,0,1,30.3,0h0A30.21,30.21,0,0,1,51.9,8.8,29.5,29.5,0,0,1,61,30.2ZM50.7,50.3a28.6,28.6,0,0,0,8.2-20.1h0a28.79,28.79,0,0,0-8.4-20A28.6,28.6,0,0,0,30.4,2h0A28.58,28.58,0,0,0,14.9,6.7,28.24,28.24,0,0,0,4.5,19.2v.1a22.53,22.53,0,0,0-1.4,4.4,23.21,23.21,0,0,0-.7,4.6,4.1,4.1,0,0,1-.1,1.1v1.2a14.77,14.77,0,0,0,.1,2.1c.1.7.1,1.4.2,2.1h0V35c.1.4.1.8.2,1.1s.2.7.3,1.1a2.54,2.54,0,0,0,.2.7c.1.2.1.5.2.6h0a25.55,25.55,0,0,0,2.4,5.6,29.79,29.79,0,0,0,3.5,5h0a1.76,1.76,0,0,1,.4.5l.4.5a28.85,28.85,0,0,0,9.4,6.5,29.42,29.42,0,0,0,11.2,2.2,28.45,28.45,0,0,0,19.9-8.5Z"/><path id="path8" class="cls-3" d="M58.2,30.3A27.91,27.91,0,0,1,30.5,58.4a27.6,27.6,0,0,1-20.3-8.5,6.47,6.47,0,0,1-.8-.9A28.38,28.38,0,0,1,3.6,38.5c-.1-.4-.2-.8-.3-1.3A17,17,0,0,1,2.9,35v-.2a27.28,27.28,0,0,1-.3-4.1v-.1a14.77,14.77,0,0,1,.1-2.1,28.35,28.35,0,0,1,2.1-8.8v-.1A27.82,27.82,0,0,1,58.2,30.3Z"/><path id="path10" class="cls-1" d="M59,30.2a28,28,0,0,1-8.2,20.1,28.45,28.45,0,0,1-20,8.5,29.42,29.42,0,0,1-11.2-2.2,26.89,26.89,0,0,1-9.4-6.5l-.4-.5a1.76,1.76,0,0,1-.4-.5,24.94,24.94,0,0,1-3.5-5,28.65,28.65,0,0,1-2.4-5.7c-.1-.2-.1-.4-.2-.6a2.54,2.54,0,0,0-.2-.7c-.1-.4-.2-.7-.3-1.1s-.1-.8-.2-1.1v-.2a14.92,14.92,0,0,1-.2-2.1,14.77,14.77,0,0,1-.1-2.1V29.3a4.1,4.1,0,0,1,.1-1.1,34,34,0,0,1,.7-4.6c.4-1.5.9-3,1.4-4.4v-.1A28.24,28.24,0,0,1,14.9,6.6,27.52,27.52,0,0,1,30.4,1.9a28,28,0,0,1,20.1,8.2A28.69,28.69,0,0,1,59,30.2ZM50,49.6a27.53,27.53,0,0,0,7.9-19.4,27.89,27.89,0,0,0-8.1-19.3A27.53,27.53,0,0,0,30.4,3,26.52,26.52,0,0,0,15.5,7.6a27.26,27.26,0,0,0-10,12v.1a34.47,34.47,0,0,0-1.4,4.2,31.07,31.07,0,0,0-.7,4.4,3.08,3.08,0,0,1-.1,1v1.1a13.4,13.4,0,0,0,.1,2c.1.7.1,1.4.2,2v.2c.1.4.1.7.2,1.1A3.59,3.59,0,0,1,4,36.8a1.42,1.42,0,0,0,.2.6c.1.2.1.4.2.6a25.81,25.81,0,0,0,2.3,5.4,27.65,27.65,0,0,0,3.4,4.8l.4.5.4.4A25.86,25.86,0,0,0,20,55.3a26,26,0,0,0,10.8,2.1A26.16,26.16,0,0,0,50,49.6Z"/><path id="path12" class="cls-1" d="M40.2,13.8c1.3-.2,3.2,2.4,4.9,8.5l.3,5.6c0,.3-.3.8-.3,1.1,0,1.1.3,2,.3,2.8.1,3-.1,4.6-2.4,11.5-.6,1-.6,2.6-1.7,3.1a36.38,36.38,0,0,1-6.9-.8c-1.5-.3-6.5,8.3-7.5,9.2a14.84,14.84,0,0,0-1.7,3.3c-7-1.6-14.7-7.7-15.2-8.9-.9-2,11.2-6.6,15.1-10.1,1.5-1.3,2.1-4.5,2.4-6.5a6.2,6.2,0,0,0-.2-3.3c2.4-3.3,5.4-6.2,7.1-9.8Z"/><path id="path14" class="cls-4" d="M40.8,13a4.81,4.81,0,0,1,4.7,2.4c1.5,2.4,1.7,6.9,1,11,.1-4.6.1-12-5.7-13.4Z"/><path id="path16" class="cls-2" d="M43.1,39.9c-.4-.8-.8-1.2-1.6-1-.4.1-.8-.1-1.3-.1a3,3,0,0,0-1,.2c-1,.5-2,1-3,1.4.8.4,1.6,1.1,2.4,1.4,1.4.5,3.5.3,4.4-1.1a1.42,1.42,0,0,0,.2-.6.31.31,0,0,1-.1-.2Zm-.6-4.1c-.1.3-.5.5-.8.6a1.17,1.17,0,0,0,.6-1c.1-2.1-1.9-6.1-1.4-6.4.2,1.6,2.2,5.7,1.6,6.8Zm-5.7-8.1c-1.9-1.4-3.8-.7-5.9.2C32.5,26.6,35.2,26.1,36.8,27.7Zm-4.4-2.6c1.9-.6,5.4-1.3,6.3,1-.2-.5-.9-.7-1.5-.9A13,13,0,0,0,32.4,25.1Zm7.9,10.6c.2,0,1.1.1.3.1-.5,0-1,.2-1,.4s.1.1,0,.1a.49.49,0,0,1-.3-.1c-.1-.2.1-.3.4-.4A1.49,1.49,0,0,1,40.3,35.7Zm-6.5-7.4a.36.36,0,0,1-.2.5c-.2,0-.2-.3-.5-.2a.84.84,0,0,0,1,1.2,2.09,2.09,0,0,0,.6-.4,1.08,1.08,0,0,0,0-1.1c-.1-.1-.1-.2-.2-.2h.2a2.41,2.41,0,0,1,2.2.9h0l.1.1c0,.2,0,.3-.1.4.1.1.2.2.3.1s.2-.2.2-.4a.35.35,0,0,0-.1-.2,2.52,2.52,0,0,0-3-1.4c-1.3.3-2.6.6-4,1a10.53,10.53,0,0,0,2.9,1.7,3.94,3.94,0,0,0,3.3-.5,4,4,0,0,1-4.8-1.1,12.31,12.31,0,0,0,2.1-.4Zm5.5,11.9A1.45,1.45,0,0,1,40,40a2.77,2.77,0,0,1,.9-.1,2.15,2.15,0,0,1,1.1.2A23.48,23.48,0,0,0,39.3,40.2Z"/><path id="path18" class="cls-4" d="M41.1,28.7c.8-1.2,2.2-1.5,3.9-1a9.2,9.2,0,0,1,.3-.9,4.16,4.16,0,0,0-2.5.2,3.09,3.09,0,0,1,2.6-.5,14.77,14.77,0,0,0-.1-2.1A4,4,0,0,0,41.8,26a2.93,2.93,0,0,1,3.5-1.7,23.43,23.43,0,0,0-1.8-6.9,14.78,14.78,0,0,1,2,10.5,2.25,2.25,0,0,0,.7-.1c0,.1-.2.2-.3.3s-.5.2-.5.3a3.08,3.08,0,0,0,0,1.4,23.46,23.46,0,0,1,.4,4.2c-.2,2.8-1.3,4.8-2.2,7.5-.3.8-.6,2.3-.8,2.9a2.54,2.54,0,0,1-2.6,2.3,17.43,17.43,0,0,1-5.7-.9c-.4-.1-7.2,8.6-7.9,9.4,1.9-3.4,5.3-8.1,7.1-9.7-2.5-.9-6.1-2-7.2-3.8,1.2,1.2,4.6,2.5,7.7,3.4a17.86,17.86,0,0,0,5.5,1c2.9-.2,2.4-1.6,3.1-4a25.54,25.54,0,0,1,1.4-3.5,12.53,12.53,0,0,0,.8-8.1,5.07,5.07,0,0,1-.2-1.3,2.75,2.75,0,0,1-2.7-.1c.6.2,2,.5,2.5-.3.2-.2.1-.7.1-1.1a3.81,3.81,0,0,0-1.5-.1c.1,0,.1.1.2.1.1.2.3.5.1.8s-.2.3-.4.3a.65.65,0,0,1-.9-.8c.2-.1.2.1.4.1s.2-.2.1-.4a1.56,1.56,0,0,0-.8.6c-.2.4-.5.6-.8.4Z"/><path id="path20" class="cls-2" d="M1,37.7c-.1-.3-.1-.5-.2-.8,9.4-1.5,19.1-1.5,27-9.4a100.5,100.5,0,0,0,6.6-7.8l.1-.1a.35.35,0,0,0-.1.2C27.3,36.1,14.4,37.4,1,37.7Z"/><path id="path22" class="cls-2" d="M9.1,50.3c-1.3.2-1.6-.7-.5-1.6a25.07,25.07,0,0,1,4.9-3.4c6.9-4.1,13.3-5.6,14.1-14.6C29.7,41.7,15.5,43.9,9.1,50.3Z"/><path id="path24" class="cls-4" d="M9.4,16.6c4-3.4,9.7-7.8,14.7-9.1A11.86,11.86,0,0,1,35.5,9.9l.3.3c-1.2-.5-2.4-1.2-3.7-1.6-3.3-1-6.6-.4-9.7.7a41.08,41.08,0,0,0-7.5,3.6c-1.7,1-3.5,2.4-5.5,3.7Z"/><path id="path26" class="cls-4" d="M2.8,18.7c13.9,4.1,18.5-.3,30-6.1,1.7-.8,3.4-1.7,4.8-1.6a2.1,2.1,0,0,1,2.3,1.8c-.6-.9-1.6-.7-2.5-.5a12,12,0,0,0-3.5,1.5C22.8,20,14.2,24.5,2.8,18.7Z"/><path id="path28" class="cls-4" d="M.4,30.4h0a4.12,4.12,0,0,1,.1-1.2h0c.9-.5,0-.4.7-.9,10.5-7.9,24.3-2.5,37.5-14.2a2.17,2.17,0,0,1,3.6.6,5.23,5.23,0,0,1,.6,1.6c-.7-1.3-1.7-2.9-3.4-1.6-.6.5-1.1,1.1-1.7,1.6a28.23,28.23,0,0,1-11.3,6.4C18,25.2,5.9,25.1.4,30.4Z"/></svg>