<svg id="svg56" xmlns="http://www.w3.org/2000/svg" viewBox="0 0 240.5 61.6"><defs><style>.cls-1{fill:#202530;}.cls-1,.cls-2,.cls-3{fill-rule:evenodd;}.cls-2{fill:#c6012d;}.cls-3{fill:#fefefe;}</style></defs><path id="path30" class="cls-1" d="M131.3,31.6h0V44.3h15.9V39.7h-8.8V36.4H151v8.7a2.46,2.46,0,0,1-2.5,2.4H130.4a3.06,3.06,0,0,1-2.8-3.1h0V31.5a3.12,3.12,0,0,1,3.1-3.1H151v3.3h-.1c-6.6-.1-13.1-.1-19.6-.1ZM239,17.4h-4.5v2.7h-1.4V14.6c0-.6.6-1,1.2-1.1h5a1.13,1.13,0,0,1,1.2,1.1v5.5h-1.4V17.4Zm-28.8-2.6V19h5.9v1.1h-6.2a1.13,1.13,0,0,1-1.2-1.1h0V14.6a1.2,1.2,0,0,1,1.2-1.1h6.2v1.1Zm-19.3-1.2h1.4v6.5h-1.4Zm-22.4,4.1v2.5h-1.4V13.7h6.2a1.13,1.13,0,0,1,1.2,1.1v1.9c0,.6-.6,1-1.2,1.1l1.5,2.5h-1.6l-1.5-2.5h-3.2Zm-24.2-2.9v1.5h5.9v1.1h-5.9V19h5.9v1.1H144a1.13,1.13,0,0,1-1.2-1.1V14.6a1.2,1.2,0,0,1,1.2-1.1h6.2v1.1h-5.9Zm-25.7-1.2h6.8a1.1,1.1,0,0,1,1.2,1.2v4.1a1.16,1.16,0,0,1-1.2,1.2h-6.8V13.6ZM96,14.8v1.5h5.9v1.1H96V19h5.9v1.1H95.7A1.13,1.13,0,0,1,94.5,19h0V14.6a1.2,1.2,0,0,1,1.2-1.1h6.2v1.1Zm-24,0v1.6h5.9v1.1H72v2.7H70.6V14.7a1.2,1.2,0,0,1,1.2-1.1H78v1.1ZM91.8,37.9V38A3.23,3.23,0,0,1,94,40.9v3.6a3.1,3.1,0,0,1-3.1,3H70.5V28.3H90.8a3,3,0,0,1,3.1,3v3.6a3,3,0,0,1-2.1,3Zm131.4-6.3V47.5h-4V31.6h-9.8V28.3H233v3.3ZM102.7,44.3h15.8V28.4h3.7V44.5a3,3,0,0,1-3.1,3H101.9a3.17,3.17,0,0,1-3.1-3V28.4h3.8ZM236.5,28.4h4V47.5h-4Zm-40.3,3.2V47.5h-4V31.6h-9.8V28.3H206v3.3Zm-20.6,8H159.8v7.9H156V31.4a3.12,3.12,0,0,1,3.1-3.1h17.1a3.12,3.12,0,0,1,3.1,3.1V47.5h-3.7V39.6ZM239,16.3V14.8h-4.5v1.5Zm-70.5-1.5v1.8H173V14.8Zm-48.5,0V19h5.1V14.8ZM74.3,44.3H90.1V39.6H74.3Zm0-12.7v4.7H90.1V31.6Zm101.3,4.8V31.6H159.8v4.8Z"/><path id="path32" class="cls-1" d="M61.6,30.6a30.19,30.19,0,0,1-8.9,21.8A30.86,30.86,0,0,1,31,61.6a30.39,30.39,0,0,1-12.1-2.4,29,29,0,0,1-10.2-7l-.5-.5c-.2-.2-.3-.4-.5-.5h0a27.83,27.83,0,0,1-3.8-5.4,32.92,32.92,0,0,1-2.6-6.1,6.37,6.37,0,0,0-.2-.7,2.54,2.54,0,0,0-.2-.7L.6,37.1a5,5,0,0,1-.2-1.2v-.2h0c-.1-.8-.2-1.5-.3-2.2A17,17,0,0,1,0,31.2V29.8a4.87,4.87,0,0,1,.1-1.2,28.91,28.91,0,0,1,.8-5,30,30,0,0,1,1.6-4.8v-.1A31.24,31.24,0,0,1,13.8,5.1,30.26,30.26,0,0,1,30.6,0h0A30.19,30.19,0,0,1,52.4,8.9a30.86,30.86,0,0,1,9.2,21.7ZM51.2,50.9a28.48,28.48,0,0,0,8.2-20.3h0a28.92,28.92,0,0,0-8.5-20.2A28.48,28.48,0,0,0,30.6,2.2h0A27.93,27.93,0,0,0,15,7,29.29,29.29,0,0,0,4.5,19.6v.1A32.55,32.55,0,0,0,3,24.1a23.21,23.21,0,0,0-.7,4.6,3.75,3.75,0,0,1-.1,1.1V31a14.77,14.77,0,0,0,.1,2.1c.1.7.1,1.4.2,2.1h0v.2c.1.4.1.8.2,1.1s.2.7.3,1.1a2.54,2.54,0,0,0,.2.7,6.37,6.37,0,0,0,.2.7h0a28.65,28.65,0,0,0,2.4,5.7,29.46,29.46,0,0,0,3.6,5.1h0a1.76,1.76,0,0,1,.4.5l.4.5a28.23,28.23,0,0,0,9.5,6.5A26.82,26.82,0,0,0,31,59.5a29.45,29.45,0,0,0,20.2-8.6Z"/><path id="path34" class="cls-2" d="M58.7,30.7A28.22,28.22,0,0,1,10.2,50.5a6.47,6.47,0,0,1-.8-.9A27.63,27.63,0,0,1,3.5,39c-.1-.4-.2-.9-.3-1.3-.2-.7-.3-1.5-.5-2.2v-.2a28.28,28.28,0,0,1-.3-4.1v-.1A14.77,14.77,0,0,1,2.5,29a29.68,29.68,0,0,1,2.1-8.9V20A28.15,28.15,0,0,1,30.3,2.9,27.87,27.87,0,0,1,58.7,30.7Z"/><path id="path36" class="cls-3" d="M59.5,30.6A28.68,28.68,0,0,1,31,59.5a30.33,30.33,0,0,1-11.3-2.2,27.53,27.53,0,0,1-9.5-6.6l-.4-.5a1.76,1.76,0,0,1-.4-.5,29.46,29.46,0,0,1-3.6-5.1,28.65,28.65,0,0,1-2.4-5.7,6.37,6.37,0,0,1-.2-.7,6.37,6.37,0,0,1-.2-.7c-.1-.4-.2-.7-.3-1.1s-.1-.8-.2-1.1v-.2A14.92,14.92,0,0,1,2.3,33a14.77,14.77,0,0,1-.1-2.1V29.7a4.1,4.1,0,0,1,.1-1.1A34,34,0,0,1,3,24a32.55,32.55,0,0,1,1.5-4.4v-.1A28.18,28.18,0,0,1,15,6.9,29.07,29.07,0,0,1,30.7,2.1a28.55,28.55,0,0,1,20.4,8.3,29.08,29.08,0,0,1,8.4,20.2ZM50.4,50.2a27.17,27.17,0,0,0,7.9-19.6,28,28,0,0,0-8.2-19.5A27.17,27.17,0,0,0,30.5,3.2,26.92,26.92,0,0,0,15.4,7.8,27.63,27.63,0,0,0,5.3,19.9V20a21.62,21.62,0,0,0-1.4,4.3,30.29,30.29,0,0,0-.7,4.5,3.08,3.08,0,0,1-.1,1V31a13.4,13.4,0,0,0,.1,2c.1.7.1,1.4.2,2v.2c.1.4.1.7.2,1.1a3.59,3.59,0,0,1,.2,1.1A1.42,1.42,0,0,0,4,38c.1.2.1.4.2.6a26.63,26.63,0,0,0,2.3,5.5A28.47,28.47,0,0,0,9.9,49l.4.5.4.4a27.94,27.94,0,0,0,9.2,6.3,26.18,26.18,0,0,0,10.9,2.1,27.23,27.23,0,0,0,19.6-8.1Z"/><path id="path38" class="cls-3" d="M40.5,14c1.3-.2,3.2,2.5,5,8.6l.3,5.7c0,.3-.3.8-.3,1.1,0,1.1.3,2,.3,2.8.1,3-.1,4.7-2.4,11.6-.6,1.1-.6,2.6-1.7,3.2a38.71,38.71,0,0,1-7-.8c-1.5-.4-6.6,8.4-7.6,9.3a13.51,13.51,0,0,0-1.7,3.4c-7.1-1.6-14.8-7.8-15.4-9-.9-2.1,11.3-6.7,15.3-10.2,1.5-1.3,2.1-4.6,2.4-6.6a6.2,6.2,0,0,0-.2-3.3c2.4-3.3,5.5-6.3,7.2-9.9Z"/><path id="path40" class="cls-1" d="M41.1,13.2a5.05,5.05,0,0,1,4.8,2.4c1.5,2.4,1.7,6.9,1,11.2C47,22.1,47,14.6,41.1,13.2Z"/><path id="path42" class="cls-1" d="M43.4,40.4c-.4-.8-.8-1.3-1.7-1.1-.4.1-.8-.1-1.3-.1a3,3,0,0,0-1,.2,29.17,29.17,0,0,1-3.1,1.4c.8.4,1.6,1.1,2.4,1.4,1.4.5,3.6.3,4.4-1.1a1.42,1.42,0,0,0,.2-.6.1.1,0,0,0,.1-.1Zm-.5-4.1c-.1.3-.5.5-.8.6a1.17,1.17,0,0,0,.6-1c.1-2.1-1.9-6.2-1.4-6.5C41.4,31,43.4,35.1,42.9,36.3ZM37,28.1c-1.9-1.4-3.8-.7-5.9.2C32.7,27,35.5,26.5,37,28.1Zm-4.4-2.7c1.9-.6,5.5-1.3,6.4,1.1-.2-.6-.9-.8-1.5-1A13.57,13.57,0,0,0,32.6,25.4Zm8,10.8c.2,0,1.1.1.3.1-.5,0-1,.2-1,.4s.1.1,0,.1a.49.49,0,0,1-.3-.1c-.2-.2.1-.3.4-.4A1.49,1.49,0,0,1,40.6,36.2ZM34,28.7a.36.36,0,0,1-.2.5c-.2,0-.2-.3-.5-.2a.9.9,0,0,0,1,1.3,2.09,2.09,0,0,0,.6-.4,1.07,1.07,0,0,0,0-1.1c-.1-.1-.1-.2-.2-.2h.2a2.76,2.76,0,0,1,2.3.9h0l.1.1c0,.2,0,.3-.2.4.1.1.2.2.3.1s.2-.2.2-.4a.35.35,0,0,0-.1-.2,2.64,2.64,0,0,0-3.1-1.4c-1.3.3-2.7.7-4,1a11.09,11.09,0,0,0,3,1.7,3.61,3.61,0,0,0,3.3-.5,4.18,4.18,0,0,1-4.9-1.1,15.18,15.18,0,0,1,2.2-.5Zm5.7,12a1.45,1.45,0,0,1,.7-.2,2.77,2.77,0,0,1,.9-.1,2.15,2.15,0,0,1,1.1.2,21.79,21.79,0,0,0-2.7.1Z"/><path id="path44" class="cls-1" d="M41.4,29.1c.8-1.2,2.2-1.5,3.9-1a9.2,9.2,0,0,1,.3-.9,4.09,4.09,0,0,0-2.5.2,3.09,3.09,0,0,1,2.6-.5,14.77,14.77,0,0,0-.1-2.1A4.27,4.27,0,0,0,42,26.4c.4-1.4,1.9-2,3.6-1.7a24.91,24.91,0,0,0-1.8-7,15,15,0,0,1,2,10.6,2.25,2.25,0,0,0,.7-.1c0,.1-.2.2-.3.3s-.5.2-.5.3a3.08,3.08,0,0,0,0,1.4,24.28,24.28,0,0,1,.4,4.2c-.2,2.8-1.3,4.9-2.2,7.6-.3.8-.6,2.3-.8,2.9-.3,1.3-.8,2.1-2.7,2.4s-4.6-.6-5.8-.9c-.4-.1-7.3,8.7-8,9.5,1.9-3.4,5.4-8.2,7.2-9.8-2.5-.9-6.2-2-7.2-3.9,1.2,1.2,4.6,2.5,7.8,3.4a15.31,15.31,0,0,0,5.5,1c2.9-.2,2.4-1.6,3.2-4a36.46,36.46,0,0,1,1.4-3.5,12.77,12.77,0,0,0,.8-8.2,5.07,5.07,0,0,1-.2-1.3,3,3,0,0,1-2.8-.1c.6.2,2,.5,2.5-.3.2-.2.1-.7.1-1.1a3.81,3.81,0,0,0-1.5-.1c.1,0,.1.1.2.1.1.2.3.5.1.8s-.2.3-.4.3a.65.65,0,0,1-.9-.8c.2-.1.2.1.4.1s.2-.2.1-.4a1.56,1.56,0,0,0-.8.6C42,29.1,41.7,29.3,41.4,29.1Z"/><path id="path46" class="cls-1" d="M.9,38.1c-.1-.3-.1-.6-.2-.9C10.2,35.7,20,35.7,28,27.7a103.26,103.26,0,0,0,6.7-7.9l.1-.1a.35.35,0,0,0-.1.2C27.5,36.5,14.4,37.9.9,38.1Z"/><path id="path48" class="cls-1" d="M9.1,50.9c-1.3.2-1.6-.7-.5-1.6a30.63,30.63,0,0,1,4.9-3.5C20.4,41.7,27,40.2,27.8,31,29.9,42.2,15.6,44.5,9.1,50.9Z"/><path id="path50" class="cls-1" d="M9.4,16.9c4-3.4,9.8-7.9,14.9-9.2a12,12,0,0,1,11.5,2.4l.3.3a33.39,33.39,0,0,0-3.8-1.6c-3.3-1-6.6-.4-9.8.7a44,44,0,0,0-7.6,3.6c-1.7,1-3.5,2.4-5.5,3.8Z"/><path id="path52" class="cls-1" d="M2.8,18.9c14,4.2,18.7-.3,30.3-6.2,1.7-.8,3.5-1.7,4.9-1.7a2.1,2.1,0,0,1,2.3,1.8c-.6-.9-1.6-.7-2.5-.5a13.7,13.7,0,0,0-3.5,1.5C23,20.3,14.2,24.9,2.8,18.9Z"/><path id="path54" class="cls-1" d="M.3,30.8h0a4.12,4.12,0,0,1,.1-1.2h0c.9-.5,0-.4.7-.9,10.7-8,24.6-2.5,37.8-14.3a2.27,2.27,0,0,1,3.7.6,5.23,5.23,0,0,1,.6,1.6c-.7-1.3-1.7-3-3.4-1.6-.6.5-1.1,1.1-1.7,1.6A26.34,26.34,0,0,1,26.7,23C18.1,25.6,5.8,25.5.3,30.8Z"/></svg>